<svg width="36" height="39" viewBox="0 0 36 39" fill="none" xmlns="http://www.w3.org/2000/svg">
<g clip-path="url(#clip0_6_40)">
<path d="M25.8142 26.8125C25.5611 24.3412 24.5404 22.0364 22.9195 20.276C21.2986 18.5156 19.1737 17.404 16.8932 17.1235C14.6126 16.843 12.3118 17.4102 10.3679 18.7322C8.42395 20.0542 6.95231 22.0524 6.19423 24.3993C4.45709 24.5534 2.84229 25.4294 1.68784 26.844C0.533397 28.2586 -0.0712001 30.1022 0.000609829 31.9887C0.0724198 33.8753 0.81507 35.6587 2.07311 36.9655C3.33114 38.2724 5.00703 39.0014 6.74998 39H25.875C27.3668 39 28.7976 38.3579 29.8525 37.2151C30.9073 36.0723 31.5 34.5224 31.5 32.9062C31.5 31.29 30.9073 29.7401 29.8525 28.5973C28.7976 27.4545 27.3668 26.8125 25.875 26.8125H25.8142Z" fill="#6D4DB1"/>
<path d="M23.6251 3.65625C23.6251 3.33302 23.5066 3.02302 23.2956 2.79446C23.0846 2.5659 22.7985 2.4375 22.5001 2.4375C22.2018 2.4375 21.9156 2.5659 21.7046 2.79446C21.4937 3.02302 21.3751 3.33302 21.3751 3.65625V6.09375C21.3751 6.41698 21.4937 6.72698 21.7046 6.95554C21.9156 7.1841 22.2018 7.3125 22.5001 7.3125C22.7985 7.3125 23.0846 7.1841 23.2956 6.95554C23.5066 6.72698 23.6251 6.41698 23.6251 6.09375V3.65625ZM32.0469 8.4435C32.1543 8.33107 32.24 8.19659 32.299 8.0479C32.358 7.89921 32.389 7.73928 32.3903 7.57746C32.3916 7.41563 32.3631 7.25515 32.3065 7.10537C32.25 6.95559 32.1664 6.81951 32.0608 6.70508C31.9552 6.59065 31.8296 6.50015 31.6913 6.43887C31.5531 6.37759 31.4049 6.34676 31.2555 6.34816C31.1062 6.34957 30.9585 6.38319 30.8213 6.44706C30.684 6.51094 30.5599 6.60378 30.4561 6.72019L28.8631 8.4435C28.6519 8.67235 28.5332 8.98273 28.5332 9.30638C28.5332 9.63002 28.6519 9.9404 28.8631 10.1693C29.0744 10.3981 29.3609 10.5267 29.6596 10.5267C29.9584 10.5267 30.2449 10.3981 30.4561 10.1693L32.0469 8.4435ZM14.5441 6.72019C14.3319 6.49818 14.0478 6.37534 13.7528 6.37812C13.4578 6.38089 13.1757 6.50907 12.9671 6.73503C12.7585 6.961 12.6402 7.26668 12.6376 7.58623C12.6351 7.90578 12.7484 8.21364 12.9534 8.4435L14.5441 10.1693C14.6487 10.2826 14.7729 10.3725 14.9096 10.4338C15.0462 10.4951 15.1927 10.5267 15.3406 10.5267C15.4885 10.5267 15.635 10.4951 15.7717 10.4338C15.9084 10.3725 16.0325 10.2826 16.1371 10.1693C16.2417 10.0559 16.3247 9.92141 16.3813 9.77336C16.4379 9.62531 16.467 9.46663 16.467 9.30638C16.467 9.14612 16.4379 8.98744 16.3813 8.83939C16.3247 8.69134 16.2417 8.55681 16.1371 8.4435L14.5441 6.72019ZM18.4456 14.9443C18.7253 14.3165 19.1259 13.761 19.6206 13.3152C20.1153 12.8694 20.6925 12.5437 21.3132 12.3601C21.9339 12.1765 22.5838 12.1393 23.2189 12.2509C23.8541 12.3625 24.4598 12.6204 24.9951 13.0071C25.5304 13.3939 25.983 13.9005 26.3222 14.4928C26.6615 15.0851 26.8795 15.7494 26.9616 16.4408C27.0438 17.1322 26.9881 17.8346 26.7983 18.5006C26.6085 19.1667 26.2891 19.781 25.8616 20.3019C26.3116 20.9893 26.6986 21.7189 27.0226 22.4908C27.7851 21.7444 28.3803 20.8193 28.7627 19.786C29.1451 18.7526 29.3046 17.6383 29.2291 16.528C29.1537 15.4177 28.8452 14.3408 28.3272 13.3792C27.8092 12.4177 27.0954 11.597 26.2402 10.9797C25.385 10.3623 24.411 9.96471 23.3924 9.81708C22.3739 9.66945 21.3376 9.77572 20.3627 10.1278C19.3878 10.4799 18.4999 11.0685 17.7669 11.8487C17.0338 12.6289 16.4748 13.5801 16.1326 14.6299C16.9261 14.6575 17.6971 14.7623 18.4456 14.9443ZM28.5346 24.8747C29.8846 25.3988 31.0659 26.3128 31.9591 27.4877C32.0816 27.3802 32.1819 27.2461 32.2535 27.0939C32.325 26.9418 32.3663 26.7751 32.3746 26.6045C32.3828 26.434 32.3579 26.2635 32.3015 26.1041C32.245 25.9446 32.1583 25.7998 32.0469 25.6791L30.4561 23.9557C30.2957 23.781 30.0902 23.663 29.8667 23.6173C29.6431 23.5717 29.4121 23.6005 29.2039 23.7C28.9958 23.7996 28.8205 23.9651 28.701 24.1748C28.5815 24.3845 28.5235 24.6285 28.5346 24.8747ZM32.6251 15.8438C32.3268 15.8438 32.0406 15.9722 31.8296 16.2007C31.6187 16.4293 31.5001 16.7393 31.5001 17.0625C31.5001 17.3857 31.6187 17.6957 31.8296 17.9243C32.0406 18.1528 32.3268 18.2812 32.6251 18.2812H34.8751C35.1735 18.2812 35.4596 18.1528 35.6706 17.9243C35.8816 17.6957 36.0001 17.3857 36.0001 17.0625C36.0001 16.7393 35.8816 16.4293 35.6706 16.2007C35.4596 15.9722 35.1735 15.8438 34.8751 15.8438H32.6251Z" fill="#6D4DB1"/>
</g>
<defs>
<clipPath id="clip0_6_40">
<rect width="36" height="39" fill="white"/>
</clipPath>
</defs>
</svg>
