<svg width="20" height="20" viewBox="0 0 20 20" fill="none" xmlns="http://www.w3.org/2000/svg">
<path d="M6.34749 7.26L9.01833 5.32C9.31815 5.10059 9.68283 4.98793 10.0542 5C10.5071 5.01129 10.9452 5.16342 11.3077 5.43524C11.6702 5.70705 11.9389 6.08504 12.0767 6.51667C12.2317 7.0025 12.3733 7.33083 12.5017 7.50083C12.8893 8.01832 13.3923 8.43832 13.9706 8.72748C14.549 9.01665 15.1867 9.16702 15.8333 9.16667V10.8333C14.9729 10.8341 14.123 10.6442 13.3447 10.2772C12.5665 9.9102 11.8792 9.37525 11.3325 8.71083L10.7508 12.0075L12.4683 13.4483L14.3208 18.5383L12.7542 19.1083L11.055 14.4383L8.22999 12.0675C7.99801 11.8804 7.82045 11.6345 7.7158 11.3554C7.61115 11.0764 7.58324 10.7743 7.63499 10.4808L8.05916 8.07667L7.49499 8.48667L5.72249 10.9267L4.37416 9.94667L6.33333 7.25L6.34749 7.26ZM11.25 4.58333C10.808 4.58333 10.384 4.40774 10.0715 4.09518C9.75892 3.78262 9.58333 3.35869 9.58333 2.91667C9.58333 2.47464 9.75892 2.05072 10.0715 1.73816C10.384 1.42559 10.808 1.25 11.25 1.25C11.692 1.25 12.1159 1.42559 12.4285 1.73816C12.7411 2.05072 12.9167 2.47464 12.9167 2.91667C12.9167 3.35869 12.7411 3.78262 12.4285 4.09518C12.1159 4.40774 11.692 4.58333 11.25 4.58333ZM8.77499 15.5675L6.09666 18.7592L4.81999 17.6883L7.29916 14.7333L7.92083 12.9167L9.41333 14.1667L8.77499 15.5675Z" fill="#ABABAB"/>
</svg>
