<svg width="19" height="19" viewBox="0 0 19 19" fill="none" xmlns="http://www.w3.org/2000/svg">
<path fill-rule="evenodd" clip-rule="evenodd" d="M2.74234 16.2576C3.90293 17.4166 5.76809 17.4166 9.50001 17.4166C13.2319 17.4166 15.0979 17.4166 16.2569 16.2568C17.4167 15.0986 17.4167 13.2318 17.4167 9.49992C17.4167 5.768 17.4167 3.90204 16.2569 2.74225C15.0987 1.58325 13.2319 1.58325 9.50001 1.58325C5.76809 1.58325 3.90214 1.58325 2.74234 2.74225C1.58334 3.90284 1.58334 5.768 1.58334 9.49992C1.58334 13.2318 1.58334 15.0986 2.74234 16.2576ZM14.8438 12.6666C14.8438 12.8241 14.7812 12.9751 14.6699 13.0864C14.5585 13.1978 14.4075 13.2603 14.25 13.2603H4.75001C4.59254 13.2603 4.44152 13.1978 4.33017 13.0864C4.21882 12.9751 4.15626 12.8241 4.15626 12.6666C4.15626 12.5091 4.21882 12.3581 4.33017 12.2467C4.44152 12.1354 4.59254 12.0728 4.75001 12.0728H14.25C14.4075 12.0728 14.5585 12.1354 14.6699 12.2467C14.7812 12.3581 14.8438 12.5091 14.8438 12.6666ZM14.25 10.0937C14.4075 10.0937 14.5585 10.0311 14.6699 9.91976C14.7812 9.80841 14.8438 9.65739 14.8438 9.49992C14.8438 9.34245 14.7812 9.19142 14.6699 9.08007C14.5585 8.96872 14.4075 8.90617 14.25 8.90617H4.75001C4.59254 8.90617 4.44152 8.96872 4.33017 9.08007C4.21882 9.19142 4.15626 9.34245 4.15626 9.49992C4.15626 9.65739 4.21882 9.80841 4.33017 9.91976C4.44152 10.0311 4.59254 10.0937 4.75001 10.0937H14.25ZM14.8438 6.33325C14.8438 6.49072 14.7812 6.64175 14.6699 6.7531C14.5585 6.86445 14.4075 6.927 14.25 6.927H4.75001C4.59254 6.927 4.44152 6.86445 4.33017 6.7531C4.21882 6.64175 4.15626 6.49072 4.15626 6.33325C4.15626 6.17578 4.21882 6.02476 4.33017 5.91341C4.44152 5.80206 4.59254 5.7395 4.75001 5.7395H14.25C14.4075 5.7395 14.5585 5.80206 14.6699 5.91341C14.7812 6.02476 14.8438 6.17578 14.8438 6.33325Z" fill="#B9B9B9"/>
</svg>
