<svg width="20" height="20" viewBox="0 0 20 20" fill="currentColor" xmlns="http://www.w3.org/2000/svg">
<path fill-rule="evenodd" clip-rule="evenodd" d="M2.88666 2.88675C1.66666 4.10841 1.66666 6.07175 1.66666 10.0001C1.66666 13.9284 1.66666 15.8926 2.88666 17.1126C4.10833 18.3334 6.07166 18.3334 10 18.3334C13.9283 18.3334 15.8925 18.3334 17.1125 17.1126C18.3333 15.8934 18.3333 13.9284 18.3333 10.0001C18.3333 6.07175 18.3333 4.10758 17.1125 2.88675C15.8933 1.66675 13.9283 1.66675 10 1.66675C6.07166 1.66675 4.1075 1.66675 2.88666 2.88675ZM14.6467 8.73341C14.7481 8.6056 14.7955 8.44319 14.7788 8.28089C14.762 8.11858 14.6825 7.96925 14.5572 7.8648C14.4318 7.76035 14.2706 7.70905 14.108 7.72187C13.9453 7.73469 13.7941 7.81061 13.6867 7.93342L12.1892 9.73008C11.8808 10.1009 11.69 10.3267 11.5342 10.4676C11.4936 10.5074 11.4479 10.5416 11.3983 10.5692L11.3892 10.5734L11.3825 10.5701L11.38 10.5692C11.3301 10.5416 11.2841 10.5074 11.2433 10.4676C11.0875 10.3259 10.8975 10.1009 10.5883 9.73008L10.345 9.43842C10.0717 9.10925 9.82416 8.81342 9.59416 8.60508C9.34333 8.37842 9.0275 8.17675 8.61083 8.17675C8.19416 8.17675 7.87916 8.37842 7.6275 8.60508C7.3975 8.81342 7.15083 9.10925 6.8775 9.43842L5.3525 11.2667C5.29997 11.3298 5.26038 11.4027 5.23599 11.481C5.21161 11.5594 5.2029 11.6419 5.21037 11.7236C5.22545 11.8887 5.3055 12.0411 5.43291 12.1472C5.56033 12.2533 5.72467 12.3044 5.88978 12.2893C6.05489 12.2742 6.20724 12.1942 6.31333 12.0667L7.81083 10.2701C8.11916 9.89925 8.31 9.67342 8.46583 9.53258C8.50637 9.49278 8.55205 9.45859 8.60166 9.43092L8.6075 9.42842L8.61083 9.42675L8.62 9.43092C8.66989 9.45856 8.71585 9.49275 8.75666 9.53258C8.9125 9.67425 9.1025 9.89925 9.41166 10.2701L9.655 10.5617C9.92916 10.8909 10.1758 11.1867 10.4058 11.3951C10.6567 11.6217 10.9725 11.8234 11.3892 11.8234C11.8058 11.8234 12.1208 11.6217 12.3725 11.3951C12.6025 11.1867 12.8492 10.8909 13.1225 10.5617L14.6467 8.73341Z" fill="#6D4DB1"/>
</svg>
