<svg width="19" height="19" viewBox="0 0 19 19" fill="none" xmlns="http://www.w3.org/2000/svg">
<path d="M6.13542 1.97925C6.13542 1.82178 6.07286 1.67075 5.96151 1.5594C5.85016 1.44805 5.69914 1.3855 5.54167 1.3855C5.38419 1.3855 5.23317 1.44805 5.12182 1.5594C5.01047 1.67075 4.94792 1.82178 4.94792 1.97925V3.23008C3.80792 3.32112 3.06058 3.54437 2.51117 4.09458C1.96096 4.644 1.73771 5.39212 1.64587 6.53133H17.3541C17.2623 5.39133 17.039 4.644 16.4888 4.09458C15.9394 3.54437 15.1913 3.32112 14.0521 3.22929V1.97925C14.0521 1.82178 13.9895 1.67075 13.8782 1.5594C13.7668 1.44805 13.6158 1.3855 13.4583 1.3855C13.3009 1.3855 13.1498 1.44805 13.0385 1.5594C12.9271 1.67075 12.8646 1.82178 12.8646 1.97925V3.17704C12.3381 3.16675 11.7475 3.16675 11.0833 3.16675H7.91667C7.25246 3.16675 6.66187 3.16675 6.13542 3.17704V1.97925Z" fill="#B5B5B5"/>
<path fill-rule="evenodd" clip-rule="evenodd" d="M1.58333 9.5C1.58333 8.83579 1.58333 8.24521 1.59363 7.71875H17.4064C17.4167 8.24521 17.4167 8.83579 17.4167 9.5V11.0833C17.4167 14.0687 17.4167 15.5618 16.4888 16.4888C15.5618 17.4167 14.0687 17.4167 11.0833 17.4167H7.91667C4.93129 17.4167 3.43821 17.4167 2.51117 16.4888C1.58333 15.5618 1.58333 14.0687 1.58333 11.0833V9.5ZM13.4583 11.0833C13.6683 11.0833 13.8697 10.9999 14.0181 10.8515C14.1666 10.703 14.25 10.5016 14.25 10.2917C14.25 10.0817 14.1666 9.88034 14.0181 9.73187C13.8697 9.58341 13.6683 9.5 13.4583 9.5C13.2484 9.5 13.047 9.58341 12.8985 9.73187C12.7501 9.88034 12.6667 10.0817 12.6667 10.2917C12.6667 10.5016 12.7501 10.703 12.8985 10.8515C13.047 10.9999 13.2484 11.0833 13.4583 11.0833ZM13.4583 14.25C13.6683 14.25 13.8697 14.1666 14.0181 14.0181C14.1666 13.8697 14.25 13.6683 14.25 13.4583C14.25 13.2484 14.1666 13.047 14.0181 12.8985C13.8697 12.7501 13.6683 12.6667 13.4583 12.6667C13.2484 12.6667 13.047 12.7501 12.8985 12.8985C12.7501 13.047 12.6667 13.2484 12.6667 13.4583C12.6667 13.6683 12.7501 13.8697 12.8985 14.0181C13.047 14.1666 13.2484 14.25 13.4583 14.25ZM10.2917 10.2917C10.2917 10.5016 10.2083 10.703 10.0598 10.8515C9.91133 10.9999 9.70996 11.0833 9.5 11.0833C9.29004 11.0833 9.08867 10.9999 8.94021 10.8515C8.79174 10.703 8.70833 10.5016 8.70833 10.2917C8.70833 10.0817 8.79174 9.88034 8.94021 9.73187C9.08867 9.58341 9.29004 9.5 9.5 9.5C9.70996 9.5 9.91133 9.58341 10.0598 9.73187C10.2083 9.88034 10.2917 10.0817 10.2917 10.2917ZM10.2917 13.4583C10.2917 13.6683 10.2083 13.8697 10.0598 14.0181C9.91133 14.1666 9.70996 14.25 9.5 14.25C9.29004 14.25 9.08867 14.1666 8.94021 14.0181C8.79174 13.8697 8.70833 13.6683 8.70833 13.4583C8.70833 13.2484 8.79174 13.047 8.94021 12.8985C9.08867 12.7501 9.29004 12.6667 9.5 12.6667C9.70996 12.6667 9.91133 12.7501 10.0598 12.8985C10.2083 13.047 10.2917 13.2484 10.2917 13.4583ZM5.54167 11.0833C5.75163 11.0833 5.95299 10.9999 6.10146 10.8515C6.24993 10.703 6.33333 10.5016 6.33333 10.2917C6.33333 10.0817 6.24993 9.88034 6.10146 9.73187C5.95299 9.58341 5.75163 9.5 5.54167 9.5C5.3317 9.5 5.13034 9.58341 4.98187 9.73187C4.83341 9.88034 4.75 10.0817 4.75 10.2917C4.75 10.5016 4.83341 10.703 4.98187 10.8515C5.13034 10.9999 5.3317 11.0833 5.54167 11.0833ZM5.54167 14.25C5.75163 14.25 5.95299 14.1666 6.10146 14.0181C6.24993 13.8697 6.33333 13.6683 6.33333 13.4583C6.33333 13.2484 6.24993 13.047 6.10146 12.8985C5.95299 12.7501 5.75163 12.6667 5.54167 12.6667C5.3317 12.6667 5.13034 12.7501 4.98187 12.8985C4.83341 13.047 4.75 13.2484 4.75 13.4583C4.75 13.6683 4.83341 13.8697 4.98187 14.0181C5.13034 14.1666 5.3317 14.25 5.54167 14.25Z" fill="#B5B5B5"/>
</svg>
